<?xml version="1.0" encoding="UTF-8" standalone="no"?>
<svg
   xmlns:dc="http://purl.org/dc/elements/1.1/"
   xmlns:cc="http://creativecommons.org/ns#"
   xmlns:rdf="http://www.w3.org/1999/02/22-rdf-syntax-ns#"
   xmlns:svg="http://www.w3.org/2000/svg"
   xmlns="http://www.w3.org/2000/svg"
   xmlns:sodipodi="http://sodipodi.sourceforge.net/DTD/sodipodi-0.dtd"
   xmlns:inkscape="http://www.inkscape.org/namespaces/inkscape"
   inkscape:version="1.0 (4035a4f, 2020-05-01)"
   sodipodi:docname="vechtdal_nl_logo.svg"
   xml:space="preserve"
   style="enable-background:new 0 0 300 300;"
   viewBox="0 0 300 300"
   y="0px"
   x="0px"
   id="Layer_1"
   version="1.1"><metadata
   id="metadata859"><rdf:RDF><cc:Work
       rdf:about=""><dc:format>image/svg+xml</dc:format><dc:type
         rdf:resource="http://purl.org/dc/dcmitype/StillImage" /></cc:Work></rdf:RDF></metadata><defs
   id="defs857" /><sodipodi:namedview
   inkscape:current-layer="Layer_1"
   inkscape:window-maximized="1"
   inkscape:window-y="25"
   inkscape:window-x="0"
   inkscape:cy="116.39344"
   inkscape:cx="157.37705"
   inkscape:zoom="2.44"
   showgrid="false"
   id="namedview855"
   inkscape:window-height="940"
   inkscape:window-width="1680"
   inkscape:pageshadow="2"
   inkscape:pageopacity="0"
   guidetolerance="10"
   gridtolerance="10"
   objecttolerance="10"
   borderopacity="1"
   bordercolor="#666666"
   pagecolor="#ffffff" />
<style
   id="style833"
   type="text/css">
	.st0{fill:url(#SVGID_1_);}
	.st1{fill:#FFFFFF;}
	.st2{font-family:'Arial-Black';}
	.st3{font-size:43.7005px;}
	.st4{fill:#FFFFFF;enable-background:new    ;}
	.st5{font-weight:bold;}
	.st6{font-size:44.5126px;}
	.st7{font-size:15.8297px;}
	.st8{fill:none;stroke:#FFFFFF;stroke-width:0.25;stroke-miterlimit:10;}
</style>
<linearGradient
   gradientTransform="matrix(1 0 0 1 0 -849.89)"
   y2="1011.7938"
   x2="199.6582"
   y1="891.2656"
   x1="194.4941"
   gradientUnits="userSpaceOnUse"
   id="SVGID_1_">
	<stop
   id="stop835"
   style="stop-color:#FBE6D5"
   offset="8.356487e-03" />
	<stop
   id="stop837"
   style="stop-color:#F1892D"
   offset="1" />
</linearGradient>
<path
   id="path840"
   d="M173.17,70.75l24.76-43.54c0,0,7.86-17.85,19.94-15.73l39.08-0.18L165.13,178c0,0-9.48,13.69-24.22,4.72  c-14.74-8.94,10.53-70,10.53-70L173.17,70.75z"
   class="st0" />
<path
   id="path842"
   d="M137.77,180.09L43.05,11.3h74.99h7.56c0,0,52.63,10.02,46.76,63.36c0,0-6.22,26.67-19.38,60.67  s-10.61,39.14-10.61,39.14s1.61,8.55,7.51,11.24C149.88,185.74,143.27,185.98,137.77,180.09z"
   class="st1" />
<g
   class="st1 st2 st3"
   style="font-size:43.7005px;font-family:Arial-Black;fill:#ffffff"
   id="text844"
   aria-label="Vechtdal"><path
     id="path921"
     style="font-style:normal;font-variant:normal;font-weight:normal;font-stretch:normal;font-family:'Arial Black';-inkscape-font-specification:'Arial Black, '"
     d="M 8.2902901,202.65779 H 18.404566 l 7.041585,22.51174 6.934894,-22.51174 h 9.815542 L 30.588641,233.9395 H 20.111617 Z" /><path
     id="path923"
     style="font-style:normal;font-variant:normal;font-weight:normal;font-stretch:normal;font-family:'Arial Black';-inkscape-font-specification:'Arial Black, '"
     d="M 69.936161,224.7641 H 52.524243 q 0.23472,2.09114 1.130921,3.11537 1.25895,1.47233 3.286073,1.47233 1.280288,0 2.432548,-0.64014 0.704158,-0.40543 1.515007,-1.42966 l 8.556592,0.78951 q -1.963108,3.4141 -4.737066,4.90777 -2.773957,1.47233 -7.959124,1.47233 -4.502346,0 -7.084261,-1.25895 -2.581914,-1.28028 -4.288965,-4.0329 -1.685713,-2.77396 -1.685713,-6.50813 0,-5.3132 3.392764,-8.59927 3.414101,-3.28608 9.410117,-3.28608 4.865095,0 7.681729,1.47234 2.816634,1.47233 4.288965,4.26762 1.472331,2.7953 1.472331,7.27631 z m -8.833987,-4.16094 q -0.256058,-2.5179 -1.365641,-3.60614 -1.088245,-1.08825 -2.880648,-1.08825 -2.069799,0 -3.307411,1.64304 -0.789511,1.02423 -1.002893,3.05135 z" /><path
     id="path925"
     style="font-style:normal;font-variant:normal;font-weight:normal;font-stretch:normal;font-family:'Arial Black';-inkscape-font-specification:'Arial Black, '"
     d="m 90.868874,225.08417 8.257858,0.93888 q -0.68282,2.58192 -2.240504,4.48101 -1.557684,1.87776 -3.990231,2.92332 -2.411209,1.04557 -6.145383,1.04557 -3.606145,0 -6.017354,-0.66148 -2.389871,-0.68282 -4.11826,-2.17649 -1.728389,-1.51501 -2.709943,-3.54213 -0.981554,-2.02712 -0.981554,-5.37721 0,-3.49945 1.194935,-5.82531 0.874864,-1.70705 2.389871,-3.05135 1.515008,-1.36564 3.115368,-2.02713 2.539238,-1.04557 6.508131,-1.04557 5.547915,0 8.449902,1.98445 2.923324,1.98445 4.096921,5.80397 l -8.172505,1.08825 q -0.384087,-1.45099 -1.408317,-2.17649 -1.002893,-0.74684 -2.709943,-0.74684 -2.155152,0 -3.499454,1.55769 -1.322965,1.53634 -1.322965,4.67305 0,2.7953 1.322965,4.24629 1.322964,1.45099 3.371425,1.45099 1.707051,0 2.85931,-0.87486 1.173597,-0.87487 1.749727,-2.68861 z" /><path
     id="path927"
     style="font-style:normal;font-variant:normal;font-weight:normal;font-stretch:normal;font-family:'Arial Black';-inkscape-font-specification:'Arial Black, '"
     d="m 103.15964,202.65779 h 8.68462 v 11.5226 q 1.77106,-1.83508 3.52079,-2.62459 1.74973,-0.78952 4.1396,-0.78952 3.54213,0 5.56925,2.15516 2.04846,2.15515 2.04846,6.61482 v 14.40324 h -8.72729 v -12.46147 q 0,-2.13382 -0.78951,-3.00868 -0.78952,-0.8962 -2.21917,-0.8962 -1.57902,0 -2.56058,1.19493 -0.98155,1.19494 -0.98155,4.28897 v 10.88245 h -8.68462 z" /><path
     id="path929"
     style="font-style:normal;font-variant:normal;font-weight:normal;font-stretch:normal;font-family:'Arial Black';-inkscape-font-specification:'Arial Black, '"
     d="m 142.82723,202.65779 v 8.62061 h 4.77974 v 6.33743 h -4.77974 v 8.04447 q 0,1.451 0.2774,1.92043 0.42676,0.7255 1.49366,0.7255 0.96022,0 2.68861,-0.55479 l 0.64014,5.99602 q -3.22205,0.70415 -6.01735,0.70415 -3.2434,0 -4.77974,-0.83218 -1.53635,-0.83219 -2.28318,-2.5179 -0.7255,-1.70705 -0.7255,-5.50524 v -7.98046 h -3.20072 v -6.33743 h 3.20072 v -4.16094 z" /><path
     id="path931"
     style="font-style:normal;font-variant:normal;font-weight:normal;font-stretch:normal;font-family:'Arial Black';-inkscape-font-specification:'Arial Black, '"
     d="m 175.58126,202.65779 v 31.28171 h -8.12983 v -3.35009 q -1.70705,2.13382 -3.11536,2.88065 -1.87776,0.98155 -4.18228,0.98155 -4.63037,0 -7.08426,-3.52079 -2.43255,-3.52079 -2.43255,-8.55659 0,-5.63327 2.68861,-8.62061 2.70994,-2.98734 6.87088,-2.98734 2.02712,0 3.67016,0.68282 1.66437,0.68282 2.94466,2.04847 v -10.83978 z m -8.70596,19.88714 q 0,-2.66726 -1.13092,-3.96889 -1.13092,-1.32296 -2.85931,-1.32296 -1.515,0 -2.53924,1.25895 -1.02423,1.25895 -1.02423,4.22495 0,2.77396 1.04557,4.07558 1.06691,1.28029 2.62459,1.28029 1.66438,0 2.77396,-1.30163 1.10958,-1.30162 1.10958,-4.24629 z" /><path
     id="path933"
     style="font-style:normal;font-variant:normal;font-weight:normal;font-stretch:normal;font-family:'Arial Black';-inkscape-font-specification:'Arial Black, '"
     d="m 188.83224,218.61872 -8.30053,-0.87487 q 0.46944,-2.17649 1.3443,-3.4141 0.8962,-1.25895 2.56058,-2.17649 1.19493,-0.66148 3.28607,-1.02423 2.09114,-0.36275 4.52368,-0.36275 3.90488,0 6.27342,0.44811 2.36853,0.42676 3.94755,1.81374 1.10958,0.96021 1.74973,2.73128 0.64014,1.74972 0.64014,3.35009 v 10.00758 q 0,1.60036 0.19205,2.5179 0.21338,0.8962 0.8962,2.30452 h -8.15117 q -0.49078,-0.87486 -0.64014,-1.32297 -0.14937,-0.46943 -0.29874,-1.45099 -1.70705,1.64304 -3.39276,2.3472 -2.30452,0.93887 -5.35587,0.93887 -4.05425,0 -6.16672,-1.87775 -2.09114,-1.87776 -2.09114,-4.63038 0,-2.58191 1.51501,-4.24629 1.515,-1.66437 5.59059,-2.47522 4.88643,-0.98155 6.33742,-1.36564 1.451,-0.40542 3.07269,-1.04557 0,-1.60036 -0.66148,-2.2405 -0.66148,-0.64015 -2.32585,-0.64015 -2.13382,0 -3.20072,0.68282 -0.83219,0.53346 -1.34431,2.00579 z m 7.53236,4.56636 q -1.7924,0.64014 -3.73417,1.13092 -2.64593,0.70416 -3.35009,1.38698 -0.72549,0.70416 -0.72549,1.60036 0,1.02423 0.70416,1.68571 0.72549,0.64015 2.11247,0.64015 1.45099,0 2.68861,-0.70416 1.25895,-0.70416 1.77106,-1.70705 0.53345,-1.02423 0.53345,-2.64593 z" /><path
     id="path935"
     style="font-style:normal;font-variant:normal;font-weight:normal;font-stretch:normal;font-family:'Arial Black';-inkscape-font-specification:'Arial Black, '"
     d="m 210.40511,202.65779 h 8.70596 v 31.28171 h -8.70596 z" /></g>
<g
   class="st4 st5 st6"
   style="font-weight:bold;font-size:44.5126px;fill:#ffffff;enable-background:new"
   id="text846"
   aria-label="NL"><path
     id="path916"
     style="font-weight:bold;font-size:44.5126px;fill:#ffffff;enable-background:new"
     d="m 259.34612,234.4639 h -8.04182 l -13.73631,-22.21283 v 22.21283 h -7.65061 v -32.36292 h 9.97622 l 11.80192,18.53967 v -18.53967 h 7.6506 z" /><path
     id="path918"
     style="font-weight:bold;font-size:44.5126px;fill:#ffffff;enable-background:new"
     d="m 290.9918,234.4639 h -23.34303 v -32.36292 h 8.34611 v 26.10333 h 14.99692 z" /></g>
<g
   class="st1 st5 st7"
   style="font-weight:bold;font-size:15.8297px;fill:#ffffff"
   id="text848"
   transform="matrix(1 0 0 1 37.8585 274.6938)"
   aria-label="105.6 FM"><path
     id="path901"
     style="font-weight:bold;font-size:15.8297px;fill:#ffffff"
     d="M 9.7389759,0 H 2.056006 V -2.0096299 H 4.4830206 V -8.0926252 H 2.056006 v -1.8782311 q 0.5565129,0 1.0666498,-0.061835 0.5101368,-0.06956 0.850228,-0.23188 0.401926,-0.193234 0.602889,-0.502408 0.200963,-0.309174 0.2318804,-0.772934 h 2.5584135 v 9.5302831 h 2.3729092 z" /><path
     id="path903"
     style="font-weight:bold;font-size:15.8297px;fill:#ffffff"
     d="m 21.642168,-5.7583627 q 0,1.453117 -0.262798,2.6047896 -0.262797,1.1439432 -0.81931,1.878231 -0.571972,0.74974658 -1.468576,1.13621387 -0.896604,0.37873795 -2.210593,0.37873795 -1.290801,0 -2.202864,-0.38646729 -0.912062,-0.3864673 -1.476305,-1.14394323 -0.571971,-0.7574759 -0.82704,-1.878231 -0.255068,-1.1284845 -0.255068,-2.5816016 0,-1.4994931 0.262798,-2.6047896 0.262797,-1.1052964 0.834769,-1.870502 0.571972,-0.757476 1.484035,-1.136214 0.912062,-0.378737 2.179675,-0.378737 1.321718,0 2.218322,0.394196 0.896604,0.386467 1.468576,1.159402 0.564242,0.757476 0.819311,1.8705018 0.255068,1.1052964 0.255068,2.5584135 z m -2.991257,0 q 0,-2.0869234 -0.409655,-2.9680689 -0.409655,-0.8888747 -1.360365,-0.8888747 -0.950709,0 -1.360365,0.8888747 -0.409655,0.8811455 -0.409655,2.9835276 0,2.0482766 0.417385,2.9526101 0.417384,0.9043335 1.352635,0.9043335 0.935251,0 1.352636,-0.9043335 0.417384,-0.9043335 0.417384,-2.9680688 z" /><path
     id="path905"
     style="font-weight:bold;font-size:15.8297px;fill:#ffffff"
     d="m 32.72605,-3.8955904 q 0,0.8966042 -0.340091,1.6695388 -0.332362,0.7652052 -0.973898,1.31398878 -0.7111,0.58743029 -1.638621,0.87341609 -0.919793,0.27825645 -2.102382,0.27825645 -1.383553,-0.007729 -2.341992,-0.22415103 -0.95071,-0.20869234 -1.553599,-0.4714901 V -2.9989862 H 24.1001 q 0.70337,0.4173847 1.514952,0.6956411 0.811581,0.2782565 1.615433,0.2782565 0.486949,0 1.051191,-0.1082109 0.571971,-0.1159402 0.904333,-0.4096553 0.262798,-0.2396097 0.394197,-0.4869488 0.139128,-0.2473391 0.139128,-0.7652053 0,-0.4019259 -0.185504,-0.6879117 -0.177775,-0.2937152 -0.463761,-0.4714901 -0.417385,-0.2550685 -1.004815,-0.3323619 -0.58743,-0.085023 -1.06665,-0.085023 -0.695641,0 -1.337176,0.1236695 -0.633807,0.1159402 -1.113026,0.2318804 h -0.340091 v -6.4926505 h 8.185377 v 2.2028635 h -5.395084 v 1.8782311 q 0.23961,-0.015459 0.602889,-0.023188 0.371009,-0.015459 0.649265,-0.015459 0.95071,0 1.692727,0.1855043 0.749747,0.177775 1.290801,0.5024075 0.70337,0.425114 1.097567,1.1284845 0.394197,0.6956412 0.394197,1.7545615 z" /><path
     id="path907"
     style="font-weight:bold;font-size:15.8297px;fill:#ffffff"
     d="M 38.067025,0 H 35.17625 v -3.037633 h 2.890775 z" /><path
     id="path909"
     style="font-weight:bold;font-size:15.8297px;fill:#ffffff"
     d="m 49.931574,-3.9187784 q 0,0.8888748 -0.324632,1.6695387 -0.324633,0.780664 -0.912063,1.31398884 -0.626077,0.5719716 -1.453117,0.87341609 -0.819311,0.30144449 -1.924607,0.30144449 -1.035732,0 -1.89369,-0.27825645 -0.850228,-0.2859858 -1.460846,-0.86568674 -0.703371,-0.66472373 -1.074379,-1.71591483 -0.371009,-1.051191 -0.371009,-2.5120374 0,-1.5149518 0.347821,-2.6898124 0.34782,-1.1748606 1.136213,-2.079194 0.757476,-0.8656869 1.963254,-1.3449059 1.213508,-0.47922 2.883046,-0.47922 0.564243,0 1.236696,0.07729 0.672453,0.07729 0.873416,0.11594 v 2.2646982 h -0.293715 q -0.208693,-0.1004815 -0.7111,-0.224151 -0.494678,-0.1313989 -1.128485,-0.1313989 -1.484034,0 -2.311074,0.7265585 -0.82704,0.7265585 -0.997086,2.0250887 0.59516,-0.3555499 1.252154,-0.5719716 0.664724,-0.2241511 1.429929,-0.2241511 0.672453,0 1.244425,0.154587 0.579701,0.1545869 1.074379,0.4946781 0.641536,0.4483021 1.028003,1.205778 0.386467,0.7574759 0.386467,1.8936897 z m -3.516852,1.7391028 q 0.23961,-0.2627977 0.378738,-0.6183476 0.146858,-0.3632793 0.146858,-0.981627 0,-0.5642422 -0.162317,-0.9197921 -0.162316,-0.3632793 -0.448302,-0.579701 -0.278256,-0.2164217 -0.656994,-0.2937151 -0.378738,-0.085023 -0.780664,-0.085023 -0.340091,0 -0.7111,0.077293 -0.371009,0.077293 -0.680182,0.1932337 0,0.077293 -0.0077,0.2550684 -0.0077,0.177775 -0.0077,0.4483021 0,0.9507095 0.185504,1.5690572 0.193234,0.6106183 0.510137,0.9352508 0.216422,0.2396098 0.510137,0.35555 0.293715,0.1082108 0.633806,0.1082108 0.255069,0 0.564242,-0.1159402 0.309174,-0.1159402 0.525596,-0.3478206 z" /><path
     id="path911"
     style="font-weight:bold;font-size:15.8297px;fill:#ffffff"
     d="m 65.861753,-9.2829445 h -5.294602 v 2.1410289 h 4.908135 V -4.915864 H 60.567151 V 0 h -2.95261 v -11.508996 h 8.247212 z" /><path
     id="path913"
     style="font-weight:bold;font-size:15.8297px;fill:#ffffff"
     d="m 79.975537,0 h -2.95261 v -7.7061579 l -2.1333,5.0008868 H 72.84135 L 70.708051,-7.7061579 V 0 h -2.798023 v -11.508996 h 3.447288 l 2.589331,5.7738213 2.581601,-5.7738213 h 3.447289 z" /></g>
<path
   class="st8"
   d="m 120.22,257.14999 v 22"
   style="fill:none;stroke:#ffffff;stroke-width:0.25;stroke-miterlimit:10"
   id="line850" />
<g
   class="st1 st5 st7"
   style="font-weight:bold;font-size:15.8297px;fill:#ffffff"
   id="text852"
   transform="matrix(1 0 0 1 132.4669 273.1342)"
   aria-label="www.vechtdalnl.nl"><path
     id="path865"
     style="font-weight:bold;font-size:15.8297px;fill:#ffffff"
     d="M 15.157247,-8.6800555 12.467435,0 H 9.5148248 L 7.7448046,-5.8511149 6.0057018,0 H 3.0144449 L 0.34782057,-8.6800555 H 3.2695133 l 1.4840344,5.9825138 1.8550431,-5.9825138 h 2.4656613 l 1.7622909,5.9825138 1.460846,-5.9825138 z" /><path
     id="path867"
     style="font-weight:bold;font-size:15.8297px;fill:#ffffff"
     d="M 30.677774,-8.6800555 27.987962,0 h -2.95261 L 23.265332,-5.8511149 21.526229,0 h -2.991257 l -2.666625,-8.6800555 h 2.921693 l 1.484035,5.9825138 1.855043,-5.9825138 h 2.465661 l 1.762291,5.9825138 1.460846,-5.9825138 z" /><path
     id="path869"
     style="font-weight:bold;font-size:15.8297px;fill:#ffffff"
     d="M 46.198301,-8.6800555 43.508489,0 h -2.95261 L 38.785858,-5.8511149 37.046756,0 h -2.991257 l -2.666625,-8.6800555 h 2.921693 l 1.484035,5.9825138 1.855043,-5.9825138 h 2.465661 l 1.762291,5.9825138 1.460846,-5.9825138 z" /><path
     id="path871"
     style="font-weight:bold;font-size:15.8297px;fill:#ffffff"
     d="m 50.866826,0 h -2.890775 v -3.037633 h 2.890775 z" /><path
     id="path873"
     style="font-weight:bold;font-size:15.8297px;fill:#ffffff"
     d="M 62.337175,-8.6800555 58.990368,0 h -3.153573 l -3.323619,-8.6800555 h 2.944881 l 2.00963,5.9670551 1.986442,-5.9670551 z" /><path
     id="path875"
     style="font-weight:bold;font-size:15.8297px;fill:#ffffff"
     d="M 72.439431,-3.8260262 H 66.07045 q 0.06184,1.0202736 0.772935,1.5613278 0.718829,0.5410543 2.110111,0.5410543 0.881146,0 1.708186,-0.3169032 0.82704,-0.3169032 1.306259,-0.6801825 h 0.309174 v 2.23378101 q -0.94298,0.37873795 -1.777749,0.54878356 -0.83477,0.17004561 -1.847314,0.17004561 -2.612519,0 -4.003801,-1.17486058 -1.391283,-1.1748606 -1.391283,-3.3468068 0,-2.1487582 1.313989,-3.4009122 1.321718,-1.2598834 3.617334,-1.2598834 2.117841,0 3.184491,1.0743791 1.066649,1.0666497 1.066649,3.0762797 z m -2.767105,-1.630892 q -0.02319,-0.8734161 -0.432844,-1.3139888 -0.409655,-0.4405728 -1.275342,-0.4405728 -0.803852,0 -1.321718,0.4173847 -0.517866,0.4173847 -0.579701,1.3371769 z" /><path
     id="path877"
     style="font-weight:bold;font-size:15.8297px;fill:#ffffff"
     d="m 78.924356,0.23188038 q -1.136214,0 -2.079195,-0.27052711 -0.93525,-0.27052711 -1.630892,-0.83476936 -0.687911,-0.56424221 -1.066649,-1.42219961 -0.378738,-0.8579574 -0.378738,-2.00963 0,-1.2135073 0.401926,-2.0946527 0.409655,-0.8811455 1.136214,-1.4608464 0.70337,-0.5487836 1.623162,-0.803852 0.919792,-0.2550684 1.909149,-0.2550684 0.888874,0 1.638621,0.1932336 0.749747,0.1932337 1.399012,0.5024075 v 2.3729092 h -0.394197 q -0.162316,-0.1391282 -0.394197,-0.3246325 -0.224151,-0.1855043 -0.556513,-0.3632793 -0.316903,-0.1700456 -0.695641,-0.2782564 -0.378738,-0.1159402 -0.881145,-0.1159402 -1.113026,0 -1.715915,0.7110998 -0.59516,0.7033705 -0.59516,1.9168778 0,1.2521541 0.610619,1.9014191 0.618347,0.6492651 1.746832,0.6492651 0.525596,0 0.94298,-0.1159402 0.425114,-0.1236696 0.703371,-0.2859858 0.262797,-0.1545869 0.46376,-0.3246325 0.200963,-0.1700457 0.371009,-0.3323619 h 0.394197 v 2.37290918 q -0.656995,0.30917384 -1.375824,0.4869488 -0.7111,0.1855043 -1.576786,0.1855043 z" /><path
     id="path879"
     style="font-weight:bold;font-size:15.8297px;fill:#ffffff"
     d="m 92.42752,0 h -2.798023 v -4.3052457 q 0,-0.5255955 -0.05411,-1.0434617 -0.0541,-0.5255955 -0.185504,-0.7729346 -0.154587,-0.2859858 -0.456032,-0.4173847 -0.293715,-0.1313988 -0.82704,-0.1313988 -0.378738,0 -0.772934,0.1236695 -0.386467,0.1236695 -0.842499,0.3941966 V 0 h -2.782564 v -12.026862 h 2.782564 v 4.3052454 q 0.742017,-0.5797009 1.4222,-0.8888748 0.687912,-0.3091738 1.522681,-0.3091738 1.406741,0 2.195134,0.8193107 0.796123,0.8193106 0.796123,2.4502026 z" /><path
     id="path881"
     style="font-weight:bold;font-size:15.8297px;fill:#ffffff"
     d="m 100.54333,-0.07729346 q -0.4483,0.11594019 -0.950708,0.17777496 -0.502408,0.0695641 -1.228966,0.0695641 -1.623163,0 -2.419285,-0.6569944 -0.788394,-0.65699441 -0.788394,-2.24923971 v -4.0579066 h -1.143943 v -1.8859604 h 1.143943 v -2.4811205 h 2.782565 v 2.4811205 h 2.604788 v 1.8859604 h -2.604788 v 3.0762797 q 0,0.4560314 0.0077,0.7961226 0.0077,0.3400913 0.12367,0.6106184 0.108211,0.2705271 0.378738,0.4328433 0.278256,0.154587 0.803852,0.154587 0.216421,0 0.564242,-0.092752 0.355547,-0.092752 0.494677,-0.1700456 h 0.23188 z" /><path
     id="path883"
     style="font-weight:bold;font-size:15.8297px;fill:#ffffff"
     d="m 110.63786,0 h -2.78257 v -0.90433347 q -0.71883,0.58743029 -1.3449,0.86568674 -0.62608,0.27825645 -1.44539,0.27825645 -1.58452,0 -2.53523,-1.22123665 -0.95071,-1.22123667 -0.95071,-3.29270137 0,-1.1052965 0.31691,-1.9555245 0.32463,-0.8579574 0.88114,-1.4685757 0.5256,-0.579701 1.27534,-0.8966042 0.74975,-0.3246325 1.4995,-0.3246325 0.78066,0 1.27534,0.1700456 0.50241,0.1623163 1.028,0.4173847 v -3.6946271 h 2.78257 z m -2.78257,-2.3960972 v -4.2588696 q -0.29371,-0.1236696 -0.61834,-0.177775 -0.32464,-0.054105 -0.59516,-0.054105 -1.09757,0 -1.64636,0.6879118 -0.54878,0.6801824 -0.54878,1.8936897 0,1.2753421 0.44057,1.855043 0.44058,0.5719716 1.41447,0.5719716 0.37874,0 0.80386,-0.1391282 0.42511,-0.1468576 0.74974,-0.3787379 z" /><path
     id="path885"
     style="font-weight:bold;font-size:15.8297px;fill:#ffffff"
     d="m 118.52179,-2.2646984 v -1.8086669 q -0.56424,0.046376 -1.22124,0.1313989 -0.65699,0.077293 -0.99708,0.1855043 -0.41739,0.1313989 -0.64154,0.3864673 -0.21642,0.247339 -0.21642,0.6569944 0,0.2705271 0.0464,0.4405727 0.0464,0.1700456 0.23188,0.3246325 0.17778,0.1545869 0.42512,0.2318804 0.24734,0.069564 0.77293,0.069564 0.41739,0 0.8425,-0.1700456 0.43284,-0.1700456 0.75748,-0.4483021 z m 0,1.34490623 q -0.22415,0.17004561 -0.55652,0.40965534 -0.33236,0.23960972 -0.62607,0.37873795 -0.40966,0.1855043 -0.85023,0.27052711 -0.44057,0.0927522 -0.96617,0.0927522 -1.23669,0 -2.07146,-0.76520525 -0.83477,-0.76520523 -0.83477,-1.95552453 0,-0.9507095 0.42511,-1.5535985 0.42512,-0.602889 1.20578,-0.9507096 0.77293,-0.3478205 1.91688,-0.4946781 1.14394,-0.1468576 2.37291,-0.2164217 v -0.046376 q 0,-0.7188291 -0.58743,-0.9893563 -0.58743,-0.2782564 -1.73138,-0.2782564 -0.68791,0 -1.46857,0.2473391 -0.78067,0.2396097 -1.12076,0.3710086 h -0.25507 v -2.0946528 q 0.44058,-0.1159402 1.42993,-0.2705271 0.99709,-0.1623163 1.99417,-0.1623163 2.37291,0 3.4241,0.7342879 1.05892,0.7265585 1.05892,2.2878864 V 0 h -2.75937 z" /><path
     id="path887"
     style="font-weight:bold;font-size:15.8297px;fill:#ffffff"
     d="m 126.62214,0 h -2.78256 v -12.026862 h 2.78256 z" /><path
     id="path889"
     style="font-weight:bold;font-size:15.8297px;fill:#ffffff"
     d="m 137.96883,0 h -2.79803 v -4.3052457 q 0,-0.5255955 -0.0541,-1.0434617 -0.0541,-0.5255955 -0.18551,-0.7729346 -0.15458,-0.2859858 -0.45603,-0.4173847 -0.29371,-0.1313988 -0.82704,-0.1313988 -0.37874,0 -0.77293,0.1236695 -0.38647,0.1236695 -0.8425,0.3941966 V 0 h -2.78257 v -8.6800555 h 2.78257 v 0.9584389 q 0.74201,-0.5797009 1.4222,-0.8888748 0.68791,-0.3091738 1.52268,-0.3091738 1.40674,0 2.19513,0.8193107 0.79613,0.8193106 0.79613,2.4502026 z" /><path
     id="path891"
     style="font-weight:bold;font-size:15.8297px;fill:#ffffff"
     d="m 143.31753,0 h -2.78256 v -12.026862 h 2.78256 z" /><path
     id="path893"
     style="font-weight:bold;font-size:15.8297px;fill:#ffffff"
     d="m 148.93676,0 h -2.89077 v -3.037633 h 2.89077 z" /><path
     id="path895"
     style="font-weight:bold;font-size:15.8297px;fill:#ffffff"
     d="m 160.38393,0 h -2.79802 v -4.3052457 q 0,-0.5255955 -0.0541,-1.0434617 -0.0541,-0.5255955 -0.1855,-0.7729346 -0.15459,-0.2859858 -0.45603,-0.4173847 -0.29372,-0.1313988 -0.82704,-0.1313988 -0.37874,0 -0.77294,0.1236695 -0.38646,0.1236695 -0.84249,0.3941966 V 0 h -2.78257 v -8.6800555 h 2.78257 v 0.9584389 q 0.74201,-0.5797009 1.4222,-0.8888748 0.68791,-0.3091738 1.52268,-0.3091738 1.40674,0 2.19513,0.8193107 0.79612,0.8193106 0.79612,2.4502026 z" /><path
     id="path897"
     style="font-weight:bold;font-size:15.8297px;fill:#ffffff"
     d="m 165.73263,0 h -2.78256 v -12.026862 h 2.78256 z" /></g>
</svg>
