<?xml version="1.0" encoding="utf-8"?>
<!-- Generator: Adobe Illustrator 26.2.1, SVG Export Plug-In . SVG Version: 6.00 Build 0)  -->
<svg version="1.1" id="Layer_1" xmlns="http://www.w3.org/2000/svg" xmlns:xlink="http://www.w3.org/1999/xlink" x="0px" y="0px"
	 viewBox="0 0 150 150" style="enable-background:new 0 0 150 150;" xml:space="preserve">
<style type="text/css">
	.st0{fill:#FFFFFF;}
	.st1{font-family:'Arial-Black';}
	.st2{font-size:21px;}
	.st3{fill:url(#SVGID_1_);}
	.st4{opacity:0.82;fill:#FFFFFF;enable-background:new    ;}
	.st5{font-family:'Avenir-Roman';}
	.st6{font-size:6px;}
	.st7{fill:#020203;}
	.st8{fill:none;stroke:#FFFFFF;stroke-width:0.25;stroke-miterlimit:10;}
</style>
<text transform="matrix(1 0 0 1 3.8911 107.1451)" class="st0 st1 st2">Vechtdal</text>
<linearGradient id="SVGID_1_" gradientUnits="userSpaceOnUse" x1="90.4726" y1="116.2328" x2="92.1997" y2="75.9232" gradientTransform="matrix(1 0 0 -1 0 150.11)">
	<stop  offset="8.356487e-03" style="stop-color:#FBE6D4"/>
	<stop  offset="1" style="stop-color:#F1892D"/>
</linearGradient>
<path class="st3" d="M83.34,43.7l8.28-14.56c0,0,2.63-5.97,6.67-5.26l13.07-0.06L80.65,79.57c0,0-3.17,4.58-8.1,1.58
	c-4.93-2.99,3.52-23.41,3.52-23.41L83.34,43.7z"/>
<path class="st0" d="M71.5,80.27L39.82,23.82H64.9h2.53c0,0,17.6,3.35,15.64,21.19c0,0-2.08,8.92-6.48,20.29
	c-4.4,11.37-3.55,13.09-3.55,13.09s0.54,2.86,2.51,3.76C75.55,82.16,73.34,82.24,71.5,80.27z"/>
<text transform="matrix(1 0 0 1 111.3617 107.3975)" class="st4 st5 st2">NL</text>
<text transform="matrix(1 0 0 1 31.6944 124.4893)" class="st0 st5 st6">105.6 FM</text>
<text transform="matrix(1 0 0 1 57.1543 124.4893)" class="st7 st5 st2"> </text>
<line class="st8" x1="62.91" y1="117.84" x2="62.91" y2="126.18"/>
<text transform="matrix(1 0 0 1 67.5541 123.898)" class="st0 st5 st6">www.vechtdalnl.nl</text>
</svg>
